<?xml version="1.0" encoding="utf-8"?>
<!-- Generator: Adobe Illustrator 27.3.1, SVG Export Plug-In . SVG Version: 6.00 Build 0)  -->
<svg version="1.1" id="Capa_1" xmlns="http://www.w3.org/2000/svg" xmlns:xlink="http://www.w3.org/1999/xlink" x="0px" y="0px"
	 viewBox="0 0 400 100" style="enable-background:new 0 0 400 100;" xml:space="preserve">
<style type="text/css">
	.st0{fill:#E72175;}
</style>
<g id="OmH6SU.tif_00000044154337343092708960000004805368618324901788_">
	<g>
		<path class="st0" d="M40.7,31.7c0-0.9,0-1.7,0-2.4c0-2.8,1.2-5,3.5-6.7c1.3-0.9,2.8-1.2,4.4-1.3c0.6-0.1,1.2,0,1.9,0
			c9,0,18,0,27,0c1.1,0,1.9-0.3,2.7-1.1c4.6-4.5,9.3-9,14-13.5c0.1-0.1,0.2-0.1,0.4-0.2c0,5,0,9.9,0,14.8c0.4,0,0.7,0.1,1,0.1
			c2.4,0,4.7,0,7.1,0c3,0,5.5,1.1,7.2,3.8c0.7,1.1,1.1,2.3,1.2,3.6c0,0.4,0,0.7,0,1.1c0,10.2,0,20.4,0,30.5c0,3.9-2.5,7.1-6.3,7.9
			c-0.8,0.2-1.6,0.2-2.4,0.2c-2.7,0-5.3,0-8,0c-0.4,0-0.8,0-1.4,0.1c0,0.8,0,1.5,0,2.1c0.4,4.2-3.3,7.8-7.2,8
			c-0.8,0-1.7,0.1-2.5,0.1c-9,0-18.1,0-27.1,0c-1,0-1.8,0.3-2.5,1c-4.5,4.4-9,8.7-13.5,13c-0.3,0.3-0.6,0.5-1.1,1c0-5.1,0-10,0-15
			c-0.5,0-0.9,0-1.3,0c-2.2,0-4.5,0-6.7,0c-1.8,0-3.3-0.4-4.8-1.4c-2-1.4-3.1-3.3-3.4-5.7c-0.1-0.5-0.1-1-0.1-1.5c0-10,0-20,0-30
			c0-0.8,0.1-1.6,0.2-2.3c0.8-3.5,3.8-6,7.4-6c2.9-0.1,5.8,0,8.7,0C39.6,31.7,40.1,31.7,40.7,31.7z M91.7,13.4c-0.1,0-0.2,0-0.3-0.1
			c-0.3,0.3-0.6,0.5-0.9,0.8c-2.9,2.8-5.9,5.6-8.7,8.5c-1,1.1-2.1,1.7-3.6,1.4c-0.4-0.1-0.7,0-1.1,0c-8.9,0-17.8,0-26.7,0
			c-0.9,0-1.7,0.1-2.6,0.2c-1.5,0.2-2.5,0.9-3.3,2.2c-0.6,1-0.7,2-0.7,3.1c0,10.3,0,20.5,0,30.8c0,0.6,0,1.3,0.2,1.8
			c0.5,1.6,1.5,2.8,3.2,3.1c0.8,0.2,1.6,0.2,2.3,0.2c17.5,0,35,0,52.5,0c0.4,0,0.8,0,1.2,0c2.4-0.1,4.8-2,4.7-4.6
			c0-1,0.1-1.9,0.1-2.9c0-9,0-18,0-27c0-0.9-0.1-1.8-0.2-2.7c-0.3-2.3-1.9-3.8-4.2-4.1c-0.8-0.1-1.6-0.1-2.4-0.1c-2.8,0-5.7,0-8.5,0
			c-0.4,0-0.7,0-1.2-0.1C91.7,20.4,91.7,16.9,91.7,13.4z"/>
		<path class="st0" d="M162.2,72.3c-3,0-5.9,0-9,0c0-0.5,0-1,0-1.5c0-5.1,0-10.2,0-15.3c0-0.9,0-1.8-0.2-2.7c-1-3.8-4.5-5.6-7.5-5.3
			c-3.5,0.4-6.3,3.5-6.3,7.1c0,5.5,0,11,0,16.4c0,0.4,0,0.8,0,1.3c-3,0-6,0-9,0c0-10.9,0-21.8,0-32.8c2.9-0.1,5.9,0,8.9,0
			c0,0.7,0,1.3,0,2.2c0.4-0.3,0.6-0.4,0.9-0.6c2.8-2.3,6-2.7,9.4-2c2.8,0.6,5.2,1.9,7.4,3.8c0.3,0.3,0.7,0.6,1.1,0.9
			c0.5-0.4,0.9-0.8,1.4-1.2c7.3-6.2,18.3-4.7,23.6,3.3c1.9,2.8,2.7,5.9,2.7,9.2c0,5.6,0,11.1,0,16.7c0,0.2,0,0.3-0.1,0.6
			c-3,0-5.9,0-9,0c0-0.6,0-1.1,0-1.6c0-5.2,0-10.3,0-15.5c0-2.3-0.7-4.3-2.4-5.8c-2-1.9-4.4-2.5-7-1.5c-2.7,1-4.3,2.9-4.7,5.8
			c-0.1,0.7-0.1,1.4-0.1,2.1c0,5.2,0,10.4,0,15.6C162.3,71.6,162.3,71.9,162.2,72.3z"/>
		<path class="st0" d="M218.6,42.1c0-0.9,0-1.7,0-2.6c3-0.1,5.9,0,8.8,0c0,11,0,21.9,0,32.9c-2.9,0.1-5.7,0.1-8.7,0
			c0-0.8-0.1-1.5-0.1-2.3c-0.2,0.1-0.5,0.1-0.6,0.3c-2.2,2-4.9,2.7-7.8,2.7c-8,0-14.7-5.2-16.8-12.9c-2.4-9.1,3.4-18.7,12.7-20.9
			c2.4-0.6,4.9-0.7,7.3,0c1.6,0.4,3,1.2,4.3,2.2C217.9,41.6,218.2,41.8,218.6,42.1z M218.6,55.8c0.1-4.7-4.2-8.8-8.7-8.7
			c-4.6,0.1-8.5,4.4-8.4,8.9c0.1,4.8,4,8.6,8.7,8.6C214.9,64.5,218.7,60.5,218.6,55.8z"/>
		<path class="st0" d="M347,42.1c0-1,0-1.8,0-2.7c2.9-0.2,5.7,0,8.7-0.1c0,11,0,21.9,0,32.9c-2.8,0.1-5.6,0-8.5,0
			c-0.1-0.8-0.1-1.6-0.2-2.3c-0.2,0-0.3,0-0.3,0c-2.3,2.3-5.2,3-8.4,2.9c-7.8-0.1-14.5-5.2-16.6-12.7c-2.6-9.2,3.4-19,12.7-21.1
			c3.4-0.8,6.8-0.7,9.9,1.2C345.1,40.8,345.9,41.4,347,42.1z M329.9,55.9c-0.3,3.9,3.3,8.7,8.6,8.7c4.7,0,8.5-4,8.5-8.8
			c0-4.8-3.9-8.6-8.6-8.7C334,47,329.6,51,329.9,55.9z"/>
		<path class="st0" d="M297.1,57.5c-8,0-16,0-24,0c0,0.2-0.1,0.4-0.1,0.5c0.6,3,2.1,5.4,4.9,6.9c1.7,0.9,3.4,1,5.2,0.5
			c1.3-0.4,2.5-1.1,3.6-1.9c0.4-0.3,0.7-0.5,1.2-0.9c1.9,1.7,3.8,3.3,5.8,5c-0.9,1.1-1.9,1.9-3,2.6c-3.3,2-6.8,3.1-10.7,2.8
			c-3.2-0.2-6.1-1.4-8.5-3.5c-6-5.1-7.6-11.5-5.6-18.9c1.6-5.9,5.5-9.8,11.4-11.5c6.2-1.8,12.7,0.6,16.7,6.1
			c2.6,3.5,3.6,7.5,3.4,11.8C297.2,57.2,297.2,57.3,297.1,57.5z M288.6,51.6c-1.2-3.4-4.7-5.8-7.9-5.5c-3,0.2-6.3,2.8-6.8,5.5
			C278.7,51.6,283.6,51.6,288.6,51.6z"/>
		<path class="st0" d="M248.9,46.9c0,0.5-0.1,0.8-0.1,1.1c0,3.9,0,7.9,0,11.8c0,0.3,0,0.6,0,0.9c0.2,1.9,1.7,3.3,3.6,3.3
			c1.5,0,3.1,0,4.6,0c0.4,0,0.8,0,1.3,0c0.8,2.8,1.5,5.4,2.3,8.1c-0.2,0.1-0.3,0.2-0.4,0.2c-2.9,0-5.8,0.1-8.7,0
			c-3.9-0.2-7-1.9-9.2-5.2c-1.3-1.9-1.9-4.1-1.9-6.5c0-4.1,0-8.1,0-12.2c0-0.4,0-0.9,0-1.5c-1.6,0-3,0-4.6,0c0-2.6-0.1-5,0-7.5
			c1.5,0,3,0,4.5,0c0-4.3,0-8.6,0-12.9c2.9,0,5.6,0,8.5,0c0,4.3,0,8.5,0,12.8c3.3,0,6.4,0,9.6,0c0,2.5,0,4.9,0,7.4
			c-1,0.3-2.1,0.1-3.2,0.1c-1,0-2.1,0-3.1,0C251.1,46.9,250,46.9,248.9,46.9z"/>
		<path class="st0" d="M367,72.3c0-10.9,0-21.8,0-32.8c3-0.1,6.1,0,9.2,0c0,11,0,21.9,0,32.9C373.3,72.3,370.2,72.3,367,72.3z"/>
		<path class="st0" d="M303.4,67.4c0-3.1,2.6-5.6,5.7-5.5c3.1,0,5.6,2.6,5.5,5.7c0,3-2.6,5.5-5.6,5.4
			C305.9,73,303.4,70.5,303.4,67.4z"/>
		<path class="st0" d="M371.6,35.2c-3,0-5.5-2.5-5.5-5.5c0-3,2.6-5.5,5.6-5.5c2.9,0,5.5,2.5,5.5,5.5
			C377.3,32.7,374.7,35.2,371.6,35.2z"/>
		<path class="st0" d="M89.9,45c0-1.9,1.6-3.5,3.6-3.6c1.9,0,3.6,1.6,3.7,3.5c0,2-1.6,3.7-3.6,3.7C91.5,48.7,90,47.1,89.9,45z"/>
		<path class="st0" d="M61,48.6c-2,0-3.6-1.6-3.6-3.5c0-2,1.6-3.7,3.6-3.7c2,0,3.7,1.7,3.7,3.7C64.7,46.9,62.9,48.6,61,48.6z"/>
		<path class="st0" d="M80.9,45.1c0,1.9-1.7,3.6-3.6,3.6c-2,0-3.7-1.7-3.7-3.6c0-2,1.7-3.6,3.7-3.6C79.3,41.5,80.9,43.2,80.9,45.1z"
			/>
	</g>
</g>
</svg>
